<svg width="816" height="840" fill="none" xmlns="http://www.w3.org/2000/svg"><g clip-path="url(#a)"><g clip-path="url(#b)"><path d="M685.614 823.971H130.386c-36.9142 0-66.8416-30.806-66.8416-68.808V189.19c0-38 29.9258-68.808 66.8416-68.808h555.228c36.914 0 66.842 30.807 66.842 68.808v565.973c0 38-29.925 68.808-66.842 68.808Z" fill="#F8F8F8"/><path d="M685.614 120.381H620.52c36.918 0 66.842 30.806 66.842 68.808v565.973c0 38.003-29.924 68.807-66.842 68.807h65.094c36.917 0 66.842-30.804 66.842-68.807V189.19c0-38.001-29.925-68.809-66.842-68.809Z" fill="#E1E1E4"/><path d="M752.456 335.803H63.5444V189.026c0-37.911 29.8541-68.644 66.6826-68.644h555.548c36.828 0 66.682 30.733 66.682 68.644v146.777h-.001Z" fill="#956EC4"/><path d="M620.686 120.381h65.093c36.822 0 66.677 30.734 66.677 68.645v146.777h-65.094V189.026c0-37.911-29.854-68.645-66.676-68.645Z" fill="#6D2C92"/><path d="M233.738 211.472c-21.72 0-39.328-18.126-39.328-40.484V56.5146c0-22.3584 17.608-40.4841 39.328-40.4841 21.719 0 39.327 18.1257 39.327 40.4841V170.988c0 22.36-17.606 40.484-39.327 40.484ZM575.481 211.472c-21.72 0-39.328-18.126-39.328-40.484V56.5146c0-22.3584 17.608-40.4841 39.328-40.4841 21.719 0 39.327 18.1257 39.327 40.4841V170.988c0 22.36-17.606 40.484-39.327 40.484Z" fill="#FFD92D"/><path d="M130.754 300.848c-8.599-.023-15.553-7.217-15.532-16.07l.26-44.389c.022-8.854 7.01-16.011 15.61-15.989 8.6.021 15.554 7.217 15.533 16.07l-.26 44.388c-.021 8.853-7.012 16.011-15.611 15.99ZM131.159 204.136c-8.6-.023-15.553-7.217-15.532-16.07l.027 1.603c.022-8.854 7.011-16.01 15.61-15.989 8.6.023 15.554 7.217 15.533 16.07l-.027-1.603c-.021 8.853-7.012 16.011-15.611 15.989Z" fill="#fff"/><path d="M179.895 602.632c-25.363 15.851-55.623 29.174-89.4185 39.37-3.0539.909-5.6037 2.246-7.3841 3.872-1.7805 1.626-2.7264 3.481-2.7395 5.373v35.41l3.7083 9.843 60.3708-22.804 35.463-71.064Z" fill="#346B99"/><path d="M80.3529 686.654s38.8351-14.572 72.2531-56.929c0 0 49.742-71.804 186.347-87.134 0 0 60.058-10.167 133.798.233 36.574 5.003 69.327 16.125 93.63 31.795 10.537 6.702 18.725 14.396 24.157 22.701.557.877.617 1.825.173 2.721-.444.897-1.372 1.7-2.664 2.307s-2.89.99-4.586 1.099c-1.696.109-3.414-.061-4.931-.487-10.74-3.151-26.164-5.198-44.966-.825L423.589 625.69l2.259 159.993-345.4951 14.679V686.654Z" fill="#EEFAFF"/><path d="M318.159 726.844c-4.517-2.873-10.5-4.954-17.193-5.979-6.693-1.026-13.795-.951-20.409.216-6.038.819-11.506 2.577-15.735 5.058-55.696 35.486-132.001 50.868-184.4691 54.64v12.228l4.4451 7.166 233.361-9.916v-63.413ZM324.845 643.245s-57.544 3.266-89.35 29.314c-1.661 1.371-2.608 2.962-2.739 4.602-.132 1.641.556 3.27 1.99 4.715 1.435 1.446 3.563 2.653 6.158 3.494 2.596.841 5.562 1.285 8.584 1.284h82.788l-7.431-43.409Z" fill="#96C1D6"/><path d="M533.558 602.139s-65.081 13.824-91.385 61.156c-7.087 12.408-7.404 25.666-.914 38.17 9.139 17.077 33.772 37.333 97.479 45.359L425.85 785.687s-155.93-9.068-126.815-120.863c3.314-12.724 11.105-32.773 23.813-43.613 33.342-20.36 99.882-20.247 125.893-16.19 5.677.885 36.635-11.243 43.983-12.486 11.516-1.95 20.249-.807 29.105 3.649 3.596 1.8 9.999 2.665 11.729 5.955Z" fill="#6295D3"/><path d="M475.448 606.956c15.424-5.552 28.246-3.197 37.934 1.383 6.318-2.434 13.079-4.509 20.176-6.193-1.52-2.9-4.496-5.514-8.595-7.547-4.43-2.139-9.82-3.607-15.626-4.254-5.806-.648-11.824-.454-17.448.564-6.766 1.217-13.232 2.882-19.249 4.958-7.128 2.445-15.718 3.3-23.979 2.387-8.26-.913-15.552-3.524-20.354-7.289-.556-.442-1.034-.869-1.443-1.254-.256-.244-.606-.455-1.028-.618-.421-.163-.903-.273-1.411-.324-.509-.051-1.032-.041-1.532.03-.501.07-.967.199-1.366.378l-11.615 5.228c-6.412 2.883-14.473 4.46-22.795 4.461h-5.931c-10.47-.026-20.679 1.773-29.127 5.133-11.662 4.737-21.607 10.606-29.335 17.311 12.637-4.898 28.058-8.796 44.951-8.614 0 0 26.506 6.214 47.069-5.737.008-.003 24.193 13.144 60.704-.003ZM295.431 690.291c-.182 16.351-5.805 35.72 1.5 46.973l128.911 48.42 112.888-38.863c-12.697-1.547-25.027-3.877-36.75-6.945-17.269 10.12-60.187 10.111-60.187 10.111-109.984-17.952-86.922-76.654-86.922-76.654s-35.241 9.624-59.44 16.958Z" fill="#346B99"/><path d="M217.135 691.113s38.394-36.966 122.402-30.671c3.188.217 6.227.859 8.848 1.868 2.62 1.009 4.741 2.355 6.173 3.917 3.611 4.124 2.86 10.263-19.439 16.788 0 0 14.023 16.196-22.883 23.137 0 0 10.502 7.217 1.551 18.439 0 0-12.822 11.366-31.903 18.846l-20.76-14.992-43.989-37.332Z" fill="#EEFAFF"/><path d="M280.298 744.715c19.083-7.481 28.869-14.335 33.485-20.127-4.539-2.065-9.969-3.47-15.78-4.084-5.811-.614-11.814-.416-17.446.575-5.915.977-11.311 2.711-15.735 5.057-1.326.723-2.56 1.494-3.694 2.307l19.17 16.272Z" fill="#96C1D6"/><path d="M508.143 662.377c-2.972 1.541-5.056 3.519-5.999 5.692-.943 2.173-.705 4.448.685 6.549 1.055 1.561 2.544 3.025 4.415 4.341 12.309 8.648 37.801 3.71 37.844-7.223v-.393c-.026-1.968-.962-3.901-2.723-5.621-.259-.252-.54-.52-.841-.801-1.629-1.526-3.875-2.832-6.569-3.817-2.694-.985-5.765-1.624-8.981-1.87-3.216-.245-6.493-.089-9.582.455-3.089.545-5.91 1.464-8.249 2.688Z" fill="#6295D3"/><path d="M421.118 720.466c-1.667-2.01-3.226-4.084-4.634-6.16-.746-1.101-2.267-1.996-4.227-2.488-1.961-.492-4.2-.54-6.226-.135-2.027.406-3.673 1.232-4.578 2.297-.905 1.066-.994 2.282-.248 3.383 1.539 2.271 3.244 4.534 5.068 6.736 11.611 14.007 39.464 31.444 76.981 41.819l16.306-5.613c-40.935-9.494-68.933-28.363-78.442-39.839Z" fill="#346B99"/><path d="M660.884 668.292c7.898 0 14.3-3.479 14.3-7.77 0-4.291-6.402-7.77-14.3-7.77-7.898 0-14.3 3.479-14.3 7.77 0 4.291 6.402 7.77 14.3 7.77Z" fill="#6295D3"/><path d="M606.58 725.683c23.862 7.032 66.267 18.642 96.223 25.152l22.592 5.368 6.252 16.063v49.593h-28.844l-319.354-7.646.737-41.139s110.789-3.317 191.535-45.17c3.929-2.207 9.116-3.628 14.718-4.031 5.602-.403 11.29.235 16.141 1.81Z" fill="#346B99"/><path d="M704.171 748.986c-29.96-6.511-71.734-18.448-95.592-25.479-5.256-1.544-11.279-2.14-17.199-1.705-5.92.436-11.433 1.882-15.744 4.13-80.747 41.863-191.444 43.954-191.444 43.954l-5.447 51.977h119.047c3.805-6.266 6.236-12.755 7.243-19.33.502-3.083 1.367-6.146 2.589-9.169 1.388-3.32 4.013-6.45 7.713-9.197 3.7-2.747 8.397-5.053 13.802-6.776 5.404-1.722 11.4-2.825 17.619-3.239 6.219-.415 12.528-.132 18.538.83l68.5 10.907c.957.153 1.982.121 2.901-.089.919-.21 1.677-.586 2.145-1.064.468-.479.618-1.03.425-1.562s-.718-1.011-1.486-1.357c-11.912-5.338-26.174-11.35-37.168-15.911-2.1-.873-3.807-1.994-4.995-3.277-1.187-1.284-1.823-2.697-1.859-4.134-.036-1.436.527-2.859 1.649-4.16 1.122-1.301 2.772-2.446 4.826-3.351l.344-.151c2.622-1.171 5.841-1.879 9.224-2.028 3.383-.149 6.769.268 9.704 1.194 30.168 9.596 86.409 18.489 112.157 22.27v-19.95c-10.658 1.112-27.492-3.333-27.492-3.333Z" fill="#EEFAFF"/><path d="M505.029 802.532c.502-3.083 1.367-6.146 2.589-9.169 1.277-3.101 3.644-6.038 6.971-8.651-29.51-5.055-58.388-11.141-86.453-18.22-14.461 1.764-29.158 2.899-43.95 3.396l-5.447 51.977h119.053c3.803-6.267 6.232-12.757 7.237-19.333Z" fill="#96C1D6"/><path d="M312.95 740.725c42.908 20.244 162.871 63.555 389.853 81.134-57.986-1.318-118.515-2.975-144.27 0H355.118c-23.392-2.533-45.324-3.073-64.615 0H170.217l-83.6137-2.101-6.2504-24.043s108.4241-7.784 197.1981-54.25c10.412-5.451 24.482-5.891 35.399-.74Z" fill="#6295D3"/><path d="M277.803 770.776c4.14-1.688 8.436-3.26 12.873-4.71 4.927-1.597 10.633-2.341 16.358-2.131 5.724.21 11.195 1.364 15.682 3.307 74.618 31.984 182.973 48.206 235.817 54.617h144.27c-226.982-17.583-345.347-62.971-388.255-83.215-5.257-2.492-12.04-3.826-19.015-3.737-6.975.088-13.636 1.591-18.674 4.213-88.774 46.467-196.5061 53.887-196.5061 53.887v28.852h89.8541c7.954-12.566 18.493-19.242 27.934-22.747 4.895-1.793 10.757-2.64 16.644-2.403 5.888.237 11.457 1.544 15.811 3.709 17.213 8.438 39.998 15.839 59.907 21.441h64.615c-27.878-7.28-54.099-16.302-78.131-26.882-3.35-1.464-6.038-3.326-7.859-5.442-1.822-2.116-2.727-4.431-2.649-6.767.079-2.336 1.14-4.631 3.103-6.709 1.963-2.079 4.775-3.886 8.221-5.283Z" fill="#EEFAFF"/><path d="M200.985 714.936c-1.025-.004-2.047-.06-3.053-.168-1.008-.11-1.994-.275-2.941-.492-.95-.211-1.858-.476-2.707-.789-1.733-.601-3.205-1.401-4.313-2.342-1.143-.931-1.943-1.973-2.355-3.07-.413-1.094-.413-2.223 0-3.318.201-.548.503-1.083.904-1.598.389-.516.876-1.009 1.451-1.47.563-.466 1.206-.9 1.921-1.299 1.834-.984 4.082-1.709 6.549-2.114 2.466-.405 5.078-.476 7.607-.208 1.008.102 1.994.26 2.943.471.939.223 1.844.487 2.705.788.857.314 1.658.67 2.391 1.065.717.404 1.372.838 1.96 1.299.564.462 1.038.955 1.415 1.471.4.514.702 1.05.901 1.598.417 1.094.417 2.223 0 3.317-.2.548-.502 1.084-.901 1.598-.378.516-.852 1.009-1.415 1.472-.588.461-1.243.895-1.96 1.298-2.952 1.593-6.942 2.488-11.102 2.491Z" fill="#5C91C4"/><path d="M572.467 633.836c-.54-.001-1.079-.031-1.608-.088-.516-.058-1.02-.143-1.506-.254-.493-.106-.963-.24-1.405-.399-.445-.162-.861-.348-1.241-.553-1.163-.642-1.933-1.463-2.206-2.351-.273-.888-.036-1.801.679-2.613.715-.813 1.874-1.486 3.318-1.928 1.444-.442 3.104-.632 4.753-.543 1.65.089 3.209.452 4.465 1.039 1.257.587 2.15 1.371 2.558 2.244.408.873.311 1.793-.277 2.634-.589.842-1.64 1.565-3.012 2.071-.446.155-.916.288-1.404.399-.494.109-1.005.194-1.527.254-.522.057-1.054.087-1.587.088ZM623.457 703.608c-2.154-.003-4.218-.469-5.742-1.295-1.525-.827-2.387-1.947-2.399-3.117.004-.293.058-.586.163-.874.106-.28.263-.554.468-.818.412-.537 1.014-1.026 1.77-1.438 1.14-.614 2.587-1.032 4.161-1.203 1.574-.171 3.206-.087 4.693.241.493.11.963.247 1.404.409.895.324 1.663.742 2.259 1.228.299.239.552.495.754.763.195.266.352.539.468.818.098.288.145.581.142.874-.001.58-.213 1.154-.623 1.69-.41.536-1.01 1.023-1.766 1.432-.756.41-1.653.735-2.64.956-.987.222-2.044.335-3.112.334ZM399.104 699.19c-1.958-.001-3.851-.386-5.329-1.084-1.479-.698-2.444-1.663-2.72-2.717-.186-.701-.358-1.405-.515-2.112-.13-.576-.049-1.161.237-1.721s.772-1.083 1.431-1.541c1.33-.924 3.282-1.523 5.425-1.666 2.143-.142 4.303.184 6.004.907 1.7.723 2.803 1.783 3.065 2.947.147.648.304 1.294.472 1.938.151.575.092 1.161-.174 1.725-.266.563-.734 1.092-1.377 1.556-.642.465-1.447.856-2.369 1.152-.921.296-1.94.49-3 .571-.381.03-.765.045-1.15.045ZM476.521 598.594c-4.319 1.054-23.459 3.105-31.14 2.425-22.321 13.441-47.392 33.517-54.546 63.165-.417 1.722-.767 3.47-1.042 5.197-.092.579.026 1.162.349 1.716.323.554.843 1.068 1.532 1.513.688.445 1.531.811 2.48 1.079.949.268 1.986.431 3.051.481.238.011.474.016.709.016 2.036-.001 3.998-.417 5.498-1.165 1.5-.749 2.429-1.775 2.604-2.878.255-1.594.576-3.207.963-4.806 9.71-40.244 58.272-61.603 69.542-66.743ZM354.139 641.781c.559.064 1.129.097 1.701.098 1.864-.001 3.671-.349 5.119-.987 1.448-.637 2.449-1.526 2.837-2.516 6.78-17.311 17.648-28.487 31.201-38.168l-20.222.341c-11.758 9.773-20.913 20.68-26.907 35.984-.223.569-.237 1.155-.042 1.726.195.572.595 1.116 1.177 1.604.582.487 1.335.907 2.217 1.236.881.329 1.873.561 2.919.682Z" fill="#346B99"/><path d="M752.455 570.68c-8.6 0-15.571 7.178-15.571 16.029v168.454c0 29.103-23.001 52.778-51.269 52.778H130.386c-28.27 0-51.2697-23.678-51.2697-52.778v-126.42c0-8.853-6.9727-16.029-15.5709-16.029-8.5983 0-15.571 7.178-15.571 16.029v126.42c0 46.781 36.9718 84.837 82.4126 84.837h555.228c45.444 0 82.412-38.059 82.412-84.837V586.709c-.001-8.853-6.972-16.029-15.572-16.029ZM752.456 426.056c-8.6 0-15.571 7.177-15.571 16.028v12.824c0 8.852 6.972 16.028 15.571 16.028 8.598 0 15.57-7.177 15.57-16.028v-12.824c0-8.851-6.971-16.028-15.57-16.028ZM685.614 104.352h-52.181V56.5146C633.433 25.3526 608.805 0 578.533 0c-30.273 0-54.9 25.3526-54.9 56.5146v47.8394H291.688V56.5146C291.688 25.3526 267.061 0 236.79 0c-30.272 0-54.9 25.3526-54.9 56.5146v47.8394h-51.504c-45.4423 0-82.4126 38.059-82.4126 84.836v328.412c0 8.853 6.9727 16.029 15.571 16.029s15.5709-7.177 15.5709-16.029V351.397H736.883v12.325c0 8.852 6.973 16.029 15.571 16.029 8.598 0 15.571-7.178 15.571-16.029v-174.53c.001-46.782-36.967-84.84-82.411-84.84ZM554.776 56.5146c0-13.4843 10.658-24.4551 23.757-24.4551 13.099 0 23.756 10.9708 23.756 24.4551V170.989c0 13.485-10.657 24.455-23.756 24.455-13.101 0-23.757-10.97-23.757-24.455V56.5146Zm-341.743 0c0-13.4843 10.658-24.4551 23.757-24.4551 13.099 0 23.756 10.9708 23.756 24.4551V170.989c0 13.485-10.657 24.455-23.756 24.455s-23.757-10.97-23.757-24.455V56.5146ZM79.1169 319.338V189.19c0-29.103 23.0011-52.777 51.2691-52.777h51.505v34.576c0 31.162 24.629 56.515 54.9 56.515 30.272 0 54.9-25.353 54.9-56.515v-34.578h231.945v34.577c0 31.162 24.628 56.514 54.9 56.514s54.9-25.352 54.9-56.514v-34.577h52.181c28.271 0 51.269 23.678 51.269 52.778v130.147l-657.7691.002Z" fill="#1C2042"/><g clip-path="url(#c)"><g clip-path="url(#d)"><path d="M468.745 783.955c13.601-8.158 24.343-14.6 48.007-14.6 23.664 0 34.405 6.444 48.002 14.602 15.199 9.118 32.426 19.454 65.523 19.454 33.097 0 50.324-10.334 65.521-19.454 13.597-8.158 24.338-14.602 48.002-14.602 9.404 0 17.028-7.625 17.028-17.027 0-9.403-7.624-17.028-17.028-17.028-33.099 0-50.324 10.334-65.522 19.454-13.596 8.158-24.337 14.601-48.001 14.601-23.665 0-34.407-6.443-48.003-14.601-9.904-5.943-20.699-12.381-36.152-16.161l-127.708 63.992c23.565-2.607 37.76-11.092 50.331-18.63ZM405.754 770.84c-.037.019-.076.038-.114.058l.114-.058Z" fill="#6ECCAE"/><path d="M314.303 550.146c.761 2.137 1.742 4.204 2.92 6.215.385.536 1.267 1.805 2.515 3.768 6.064 8.098 15.911 15.26 30.204 22.032 13.544 6.42 24.81 9.539 34.441 9.539 24.753 0 45.983-23.444 73.277-80.916 18.864-39.636 32.195-69.322 31.965-90.491-.145-13.478-5.229-28.302-41.138-45.376-15.859-7.552-28.586-11.22-38.912-11.22-11.797 0-21.462 5.316-31.118 16.592 6.225 1.773 12.607 3.28 19.158 4.424 9.263 1.619 15.459 10.443 13.84 19.706-1.447 8.271-8.635 14.098-16.754 14.098-.974 0-1.96-.085-2.952-.257-11.261-1.971-22.177-4.77-32.648-8.319-6.559 12.008-13.643 26.479-21.773 43.602-22.719 47.734-29.82 77.521-23.025 96.603ZM487.313 308.753c6.332 1.977 12.861 2.98 19.405 2.98 28.455 0 53.288-18.301 61.797-45.539 5.149-16.488 3.566-34.017-4.46-49.357-8.035-15.361-21.562-26.661-38.089-31.825-6.282-1.962-12.769-2.956-19.283-2.956-28.535 0-53.418 18.277-61.916 45.483-10.658 34.124 8.427 70.555 42.546 81.214Z" fill="#FFAC52"/><path d="m418.414 802.587 127.708-63.992 84.1-42.143c8.41-4.214 11.811-14.443 7.596-22.851-4.214-8.41-14.448-11.811-22.851-7.596l-116.734 58.496c9.377-30.921 5.389-63.553-12.77-91.665-10.508-16.267-24.457-28.717-40.277-36.823 15.754-17.431 29.5-41.692 43.232-70.607 11.257-23.65 20.699-44.193 26.984-62.59 20.057 7.275 40.638 11.072 60.765 11.072 7.505 0 14.948-.526 22.273-1.594 39.82-5.796 73.599-26.618 97.687-60.207 5.481-7.642 3.727-18.281-3.913-23.761-7.645-5.481-18.283-3.725-23.761 3.913-18.569 25.895-44.476 41.923-74.921 46.357-22.631 3.302-46.854-.007-70.306-9.185.31-3.218.487-6.384.453-9.483-.456-42.316-34.786-63.505-60.561-75.76-20.527-9.771-38.042-14.521-53.543-14.521-27.614 0-47.322 14.797-64.002 37.633-21.149-11.048-38.752-26.128-50.943-44.193-17.206-25.502-22.785-55.451-16.128-86.612 1.965-9.195-3.898-18.244-13.095-20.209-9.193-1.961-18.245 3.898-20.209 13.095-8.636 40.422-1.304 79.421 21.202 112.775 14.928 22.121 36.06 40.609 61.258 54.181-7.123 13.214-13.982 27.649-21.086 42.611-27.64 58.063-34.693 93.594-24.352 122.643 2.36 6.629 5.606 12.763 9.795 18.479 5.331 8.802 17.888 32.366 23.871 67.469 10.062 59.031-2.104 121.741-36.138 186.466l-163.173 81.764c-8.408 4.215-11.809 14.443-7.596 22.852 2.987 5.961 8.996 9.402 15.236 9.402 2.565 0 5.167-.58 7.615-1.808l148.168-74.247 53.165-26.64 85.251-42.721Zm38.441-151.272c15.834 24.512 20.554 63.504-12.737 100.301l-38.366 19.224-.114.058-77.184 38.676c28.543-71.727 27.657-130.654 20.625-169.928-1.468-8.201-3.244-15.853-5.197-22.939 14.746 6.071 28.067 9.049 40.499 9.049 10.21 0 19.555-1.912 28.223-5.524 19.909 3.993 35.361 17.319 44.251 31.083Zm-97.754-241.37c10.471 3.547 21.387 6.348 32.648 8.318.992.174 1.978.257 2.952.257 8.119 0 15.307-5.827 16.754-14.097 1.619-9.263-4.577-18.087-13.84-19.707-6.551-1.146-12.933-2.651-19.158-4.423 9.656-11.276 19.321-16.592 31.118-16.592 10.326 0 23.053 3.667 38.912 11.219 35.909 17.072 40.993 31.897 41.138 45.376.23 21.169-13.101 50.854-31.965 90.491-27.294 57.473-48.524 80.917-73.277 80.917-9.63 0-20.895-3.12-34.441-9.539-14.293-6.772-24.14-13.934-30.204-22.033-1.247-1.963-2.13-3.23-2.515-3.768-1.178-2.013-2.159-4.078-2.92-6.215-6.795-19.082.306-48.868 23.023-96.597 8.131-17.129 15.216-31.597 21.775-43.607Z" fill="#000"/><path d="M477.159 341.26c9.621 3.007 19.567 4.529 29.559 4.529 43.433 0 81.33-27.907 94.303-69.441 7.86-25.161 5.449-51.901-6.789-75.298-12.256-23.428-32.892-40.667-58.112-48.544-9.572-2.989-19.477-4.506-29.437-4.506-43.513 0-81.459 27.883-94.422 69.385-16.259 52.046 12.856 107.616 64.898 123.875Zm-32.392-113.721c8.498-27.206 33.381-45.483 61.916-45.483 6.514 0 13.001.994 19.283 2.956 16.527 5.163 30.054 16.464 38.089 31.825 8.026 15.342 9.609 32.87 4.46 49.357-8.509 27.238-33.342 45.539-61.797 45.539-6.546 0-13.074-1.003-19.405-2.98-34.119-10.659-53.204-47.09-42.546-81.214Z" fill="#000"/></g></g></g></g><defs><clipPath id="a"><path fill="#fff" d="M0 0h816v840H0z"/></clipPath><clipPath id="b"><path fill="#fff" d="M0 0h816v840H0z"/></clipPath><clipPath id="c"><path fill="#fff" transform="translate(0 6.3)" d="M0 0h816v840H0z"/></clipPath><clipPath id="d"><path fill="#fff" transform="translate(34 148)" d="M0 0h800v800H0z"/></clipPath></defs></svg>